<?xml version="1.0" encoding="utf-8"?>
<svg version="1.1" id="asset"
     xmlns="http://www.w3.org/2000/svg" xmlns:xlink="http://www.w3.org/1999/xlink"
     viewBox="0 0 187 60.015" xml:space="preserve">
     <g id="Logo" transform="translate(0 0)">
    <path id="Path_11762" data-name="Path 11762" d="M400.731-42.5c.753-.528,1.53-1,2.332-1.5.6.614,1.155,1.209,1.685,1.848-.784.419-1.54.9-2.264,1.331-.546-.563-1.133-1.137-1.752-1.677m-3.116-2.557q1.079-.884,2.373-1.759c.647.552,1.272,1.091,1.865,1.642-.837.521-1.63,1.03-2.366,1.59-.594-.518-1.222-.979-1.872-1.473m56.973-6.05-.146-.117c-19.046.774-36.916,6.73-48.933,14.139a24.093,24.093,0,0,0-1.707-2.276A105.644,105.644,0,0,1,442.45-53.25l-.173-.1C428.561-51.971,415.143-47.8,405.6-42.635a15.562,15.562,0,0,0-1.376-2.035,96,96,0,0,1,29.35-10.55l-.149-.1c-11.973,1.811-22.8,5.156-30.276,9.4a23.172,23.172,0,0,0-1.782-1.758c.783-.474,1.6-.929,2.452-1.382.37.381.733.771,1.077,1.171l.422-.4c-.235-.4-.49-.773-.76-1.154a81.68,81.68,0,0,1,19.709-6.769l-.16-.1c-6.07,1.078-14.145,2.92-20.327,5.874-5.077-6.02-15.391-10.131-30.378-13.041l-.131.087c13.551,3.072,23.481,7.681,29.591,13.406a27.792,27.792,0,0,0-2.512,1.442c-7.19-5.909-19.906-11.215-36.671-13.69l-.141.083c14.778,2.684,27.142,8.014,35.465,14.551a15.146,15.146,0,0,0-2.181,1.976c-9.243-6.542-23.879-12.051-43.457-14.585l-.135.093c16.192,2.584,33.056,8.289,44.505,17.915a17.54,17.54,0,0,0-3.58,4.03l.483.507a39.744,39.744,0,0,1,4.243-3.538c.594.508,1.172,1.061,1.737,1.613-3.936,2.7-6.758,5.609-8.024,8.414l.518.426a43.815,43.815,0,0,1,8.866-7.442c.659.728,1.285,1.417,1.879,2.17-7.387,4.865-12.262,10.237-13.352,15.178l.574.388c3.113-5.252,8.113-9.844,14.094-13.873a34.985,34.985,0,0,1,2.54,4.071l.525-.341a15.771,15.771,0,0,0-1.634-4.613c15.033-9.533,35.52-15.131,47.986-15.89" transform="translate(-353.23 63.488)" fill="#ff3630"/>
    <path id="Path_11763" data-name="Path 11763" d="M417.437-28.334h3V-15.9h-3Zm-.045-5.27h3.1v2.92h-3.1Z" transform="translate(-327.098 75.659)" fill="#231f20"/>
    <rect id="Rectangle_1618" data-name="Rectangle 1618" width="3.009" height="18.098" transform="translate(121.161 41.66)" fill="#231f20"/>
    <path id="Path_11764" data-name="Path 11764" d="M443.79-33.885h1.516v7.734h6.634v-7.734h1.52v18.1h-1.52v-9.036h-6.634v9.036H443.79Z" transform="translate(-316.346 75.545)" fill="#231f20"/>
    <path id="Path_11765" data-name="Path 11765" d="M459.765-24.441c0-2.671-1.085-4.23-2.765-4.23-1.9,0-2.788,1.79-2.788,4.23Zm-5.553,1.32c0,4.6,3.016,4.651,3.569,4.651a4.561,4.561,0,0,0,2.692-1.027l.077,1.58a5.481,5.481,0,0,1-2.916.708c-4.887,0-5.042-5.134-5.042-6.381,0-4.244,1.61-6.388,4.385-6.388,3.075,0,4.408,2.439,4.408,6.856Z" transform="translate(-312.761 77.136)" fill="#231f20"/>
    <rect id="Rectangle_1619" data-name="Rectangle 1619" width="1.472" height="18.098" transform="translate(162.196 41.66)" fill="#231f20"/>
    <path id="Path_11766" data-name="Path 11766" d="M474.285-31.923v2.9h2.549V-27.8h-2.549v8.2c0,1,.127,1.946,1.437,1.946a3.07,3.07,0,0,0,1.112-.2v1.262a3.585,3.585,0,0,1-1.431.177c-2.149,0-2.6-1.41-2.6-2.8V-27.8h-1.874v-1.224h1.874v-2.488Z" transform="translate(-305.292 76.344)" fill="#231f20"/>
    <path id="Path_11767" data-name="Path 11767" d="M400.539-23.447h-1.092c-1.427,0-3.263.426-3.263,2.339A1.8,1.8,0,0,0,398.1-19.2c1.6,0,2.442-1.31,2.442-2.9Zm-5.9-5.619a8.326,8.326,0,0,1,3.752-.922c3.731,0,4.961,1.841,4.961,4.69v5.739a16.4,16.4,0,0,0,.163,2.184h-2.7a5.174,5.174,0,0,1-.173-1.407h-.044a4.491,4.491,0,0,1-3.459,1.611,3.458,3.458,0,0,1-3.755-3.641c0-3.362,2.975-4.226,6.011-4.226h1.15V-25.5a2.131,2.131,0,0,0-2.319-2.354,5.719,5.719,0,0,0-3.414,1.2Z" transform="translate(-336.878 77.132)" fill="#231f20"/>
    <path id="Path_11768" data-name="Path 11768" d="M437.3-23.447h-1.1c-1.431,0-3.248.426-3.248,2.339a1.8,1.8,0,0,0,1.9,1.908c1.613,0,2.449-1.31,2.449-2.9ZM431.4-29.066a8.326,8.326,0,0,1,3.752-.922c3.739,0,4.944,1.841,4.944,4.69v5.739a14.134,14.134,0,0,0,.179,2.184h-2.694a5.069,5.069,0,0,1-.173-1.407h-.051A4.474,4.474,0,0,1,433.9-17.17a3.468,3.468,0,0,1-3.766-3.641c0-3.362,2.993-4.226,6.011-4.226H437.3V-25.5a2.133,2.133,0,0,0-2.326-2.354,5.7,5.7,0,0,0-3.4,1.2Z" transform="translate(-321.907 77.132)" fill="#231f20"/>
    <path id="Path_11769" data-name="Path 11769" d="M402.595-27.737a17.388,17.388,0,0,0-.1-2.07H405.2c.022.766.084.972.084,1.724h.049a3,3,0,0,1,3.183-1.9,3.189,3.189,0,0,1,.508.066v2.779a3.805,3.805,0,0,0-.849-.1c-1.231,0-2.588.759-2.588,3.075v6.79h-3Z" transform="translate(-333.165 77.132)" fill="#231f20"/>
    <path id="Path_11770" data-name="Path 11770" d="M412.958-17.78c1.769,0,2.377-1.911,2.377-4.257,0-2.406-.687-4.164-2.326-4.164-1.676,0-2.26,1.609-2.26,4.092,0,2.885.47,4.329,2.209,4.329m5.367-16.1V-17.9a14.753,14.753,0,0,0,.1,2.117h-2.816a14.226,14.226,0,0,1-.091-1.609h-.07a3.418,3.418,0,0,1-3.32,1.811c-3.1,0-4.381-2.95-4.381-6.4,0-4.054,1.528-6.419,4.617-6.419a3.218,3.218,0,0,1,2.909,1.452h.058v-6.936Z" transform="translate(-331.024 75.545)" fill="#231f20"/>
    <path id="Path_11771" data-name="Path 11771" d="M395.538-16.424a8.469,8.469,0,0,1-3.653.6c-5.132,0-7.771-3.746-7.771-8.674s2.639-8.673,7.674-8.673a9.495,9.495,0,0,1,3.753.629l-.166,2.8a5.276,5.276,0,0,0-3.2-.874c-2.56,0-4.765,1.756-4.765,6.113,0,4.374,2.205,6.113,4.765,6.113a5.266,5.266,0,0,0,3.195-.87Z" transform="translate(-340.651 75.836)" fill="#231f20"/>
    <path id="Path_11772" data-name="Path 11772" d="M421.752-27.737a17.8,17.8,0,0,0-.1-2.07h2.817c.021.393.083,1.267.083,1.576h.046a3.54,3.54,0,0,1,3.259-1.756c2.594,0,3.748,1.654,3.748,4.092v8.521h-3V-25.42a1.845,1.845,0,0,0-1.929-2.108,1.839,1.839,0,0,0-1.924,2.108v8.047h-3Z" transform="translate(-325.361 77.132)" fill="#231f20"/>
    <path id="Path_11773" data-name="Path 11773" d="M476.573-33.885h1.482v6.8h.027a3.455,3.455,0,0,1,3-1.3,3.589,3.589,0,0,1,3.625,3.642v8.955h-1.5V-24.4a2.492,2.492,0,0,0-2.549-2.765,2.51,2.51,0,0,0-2.61,2.765v8.614h-1.482Z" transform="translate(-302.994 75.545)" fill="#231f20"/>
    <path id="Path_11774" data-name="Path 11774" d="M465.936-23.635c-2.615,0-4.215.775-4.215,2.727a2.272,2.272,0,0,0,2.422,2.391c.66,0,2.975-.267,2.975-3.656v-1.462Zm1.182-2.235c0-1.713-.612-2.8-2.709-2.8a4.641,4.641,0,0,0-3.013,1.3l-.222-1.5a5.921,5.921,0,0,1,3.359-1.1c3.476,0,4.073,2.52,4.073,3.833v5.988c0,.933.068,1.853.142,2.775h-1.434l-.077-1.5h-.049a3.575,3.575,0,0,1-3.372,1.669,3.379,3.379,0,0,1-3.653-3.667c0-3.166,2.694-3.985,5.9-3.985h1.06Z" transform="translate(-309.678 77.137)" fill="#231f20"/>
    <path id="Path_11775" data-name="Path 11775" d="M483.139-33.463h-.782v-.419h2.087v.419h-.791v2.339h-.514Z" transform="translate(-300.639 75.546)" fill="#231f20"/>
    <path id="Path_11776" data-name="Path 11776" d="M486.42-32.245c-.016-.366-.037-.789-.032-1.165h-.013c-.09.334-.2.705-.326,1.051l-.4,1.2h-.394l-.367-1.188c-.107-.349-.2-.725-.277-1.067H484.6c-.013.359-.028.8-.049,1.182l-.061,1.1h-.47l.184-2.76h.66l.359,1.1a9.6,9.6,0,0,1,.265.965h.013c.073-.3.167-.647.273-.97l.379-1.1h.652l.16,2.76h-.49Z" transform="translate(-299.962 75.546)" fill="#231f20"/>
  </g>

</svg>